<svg width="48" height="48" viewBox="0 0 48 48" fill="none" xmlns="http://www.w3.org/2000/svg">
<rect width="48" height="48" rx="12" fill="#2A2A2A"/>
<path d="M24 32C21.7667 32 19.875 31.225 18.325 29.675C16.775 28.125 16 26.2333 16 24C16 21.7667 16.775 19.875 18.325 18.325C19.875 16.775 21.7667 16 24 16C25.15 16 26.25 16.2375 27.3 16.7125C28.35 17.1875 29.25 17.8667 30 18.75V16H32V23H25V21H29.2C28.6667 20.0667 27.9375 19.3333 27.0125 18.8C26.0875 18.2667 25.0833 18 24 18C22.3333 18 20.9167 18.5833 19.75 19.75C18.5833 20.9167 18 22.3333 18 24C18 25.6667 18.5833 27.0833 19.75 28.25C20.9167 29.4167 22.3333 30 24 30C25.2833 30 26.4417 29.6333 27.475 28.9C28.5083 28.1667 29.2333 27.2 29.65 26H31.75C31.2833 27.7667 30.3333 29.2083 28.9 30.325C27.4667 31.4417 25.8333 32 24 32Z" fill="#E5BDBB"/>
</svg>
