<svg width="96" height="24" viewBox="0 0 96 24" fill="none" xmlns="http://www.w3.org/2000/svg">
<g clip-path="url(#clip0_1_69)">
<path d="M53.6743 15.177C53.6743 15.177 57.1355 11.7627 58.2586 6.88142C57.9305 3.73663 51.3303 5.08049 51.3303 5.08049L43.7418 6.55131L42.0503 12.7276L42.4175 16.8451H46.7558L53.6723 15.177H53.6743Z" fill="#FDFDFD"/>
<path d="M44.402 1.61789L44.4099 7.38398V14.7869C44.32 14.9803 44.3239 15.1991 44.3239 15.4589L44.2966 21.3168C44.1383 21.3031 44.0094 21.18 43.8844 21.0355C42.9273 19.926 41.9214 18.9357 40.8256 17.9591L37.8371 15.2928C35.6845 13.3747 33.9129 11.2808 33.4304 8.36844C33.2605 7.34296 33.2234 6.43468 33.45 5.4014C34.0731 2.54374 36.3994 0.375598 39.3235 0.0493994C41.1557 -0.155695 43.148 0.356065 44.404 1.61593L44.402 1.61789Z" fill="#EC2128"/>
<path d="M44.4079 7.38145L44.4001 1.61536C44.8103 2.0275 45.3943 2.33221 45.7791 2.98656C47.3789 0.714893 50.0744 -0.373087 52.6762 0.111328C55.5612 0.648481 57.8113 2.99633 58.1629 5.89305C58.2274 6.42629 58.3524 6.87164 58.1336 7.38536L44.4079 7.38145Z" fill="#0F763C"/>
<path d="M44.2946 21.3162L44.322 15.4583C44.322 15.1985 44.3181 14.9797 44.406 14.7863L54.0356 14.7903C54.0356 14.7903 53.727 15.1282 53.5766 15.263L50.5041 18.0483C48.7911 19.6012 47.2929 21.2869 46.035 23.2245C45.9412 23.3691 45.7205 23.4687 45.6092 23.3144L44.4138 21.6912C44.3317 21.5799 44.2946 21.4236 44.2946 21.3162Z" fill="#070707"/>
<path d="M3.53349 17.3393L0 2.45724H3.5999L4.72499 8.59641C5.05705 10.3622 5.36567 12.2842 5.60788 13.7863H5.6528C5.89501 12.1748 6.24855 10.3856 6.62359 8.55344L7.8815 2.45919H11.458L12.6495 8.72923C12.9815 10.4735 13.2237 12.0635 13.4445 13.7199H13.4894C13.7101 12.0635 14.0422 10.3192 14.3508 8.55344L15.5657 2.45919H18.9879L15.1458 17.3413H11.5029L10.245 10.9384C9.95784 9.43632 9.71563 8.04558 9.53788 6.34623H9.49296C9.22731 8.0241 8.9851 9.43828 8.63156 10.9384L7.21934 17.3413H3.53154L3.53349 17.3393Z" fill="white"/>
<path d="M22.2811 13.0108C22.3905 14.4016 23.7597 15.0637 25.3282 15.0637C26.4768 15.0637 27.4046 14.9094 28.3089 14.6223L28.7504 16.8959C27.6468 17.3374 26.299 17.5581 24.8419 17.5581C21.1756 17.5581 19.0797 15.4388 19.0797 12.0596C19.0797 9.32109 20.779 6.29741 24.5332 6.29741C28.0218 6.29741 29.3461 9.01442 29.3461 11.6846C29.3461 12.2588 29.2797 12.7667 29.2348 13.0089H22.2792L22.2811 13.0108ZM26.2326 10.7157C26.2326 9.89926 25.8791 8.53001 24.334 8.53001C22.9218 8.53001 22.3475 9.81136 22.2577 10.7157H26.2326Z" fill="white"/>
<path d="M65.8413 17.0502V10.997L61.169 2.26777H64.9858L66.4996 5.82079C66.9605 6.8951 67.2672 7.68422 67.6403 8.64915H67.6832C68.0114 7.7272 68.363 6.87361 68.8025 5.82079L70.2948 2.26777H74.0451L69.1756 10.8876V17.0502H65.8413Z" fill="white"/>
<path d="M83.7392 11.5674C83.7392 15.4935 80.9538 17.2924 78.0806 17.2924C74.9436 17.2924 72.5313 15.2317 72.5313 11.7646C72.5313 8.29756 74.8127 6.08449 78.2564 6.08449C81.7 6.08449 83.7392 8.34444 83.7392 11.5674ZM75.9749 11.6767C75.9749 13.5187 76.7426 14.9016 78.1685 14.9016C79.4615 14.9016 80.2956 13.6066 80.2956 11.6767C80.2956 10.075 79.6823 8.45187 78.1685 8.45187C76.5668 8.45187 75.9749 10.0965 75.9749 11.6767Z" fill="white"/>
<path d="M95.9121 13.6066C95.9121 15.011 95.9551 16.1517 96 17.0502H93.1052L92.9509 15.5364H92.8845C92.4684 16.1947 91.4586 17.2905 89.5288 17.2905C87.3567 17.2905 85.757 15.931 85.757 12.6182V6.32279H89.1127V12.0908C89.1127 13.6476 89.6167 14.591 90.7789 14.591C91.7008 14.591 92.2262 13.9543 92.445 13.4288C92.5329 13.2316 92.5544 12.9679 92.5544 12.7042V6.32279H95.9101V13.6046L95.9121 13.6066Z" fill="white"/>
</g>
<defs>
<clipPath id="clip0_1_69">
<rect width="96" height="23.3906" fill="white"/>
</clipPath>
</defs>
</svg>
